{"title":"Tharai Thappattai 2016 Movies HDRip XviD ESubs AAC +Sample ☻rDX☻","uid":13507843,"size":740234044,"categoryP":"video","categoryS":"movies","magnet":"?xt=urn:btih:6013400c1b0b7bff2230e26c8ba6d19f6d8ba38b&amp;dn=Tharai+Thappattai+2016+Movies+HDRip+XviD+ESubs+AAC+%2BSample+%E2%98%BBrDX%E2%98%BB&amp;tr=udp%3A%2F%2Ftracker.leechers-paradise.org%3A6969&amp;tr=udp%3A%2F%2Fzer0day.ch%3A1337&amp;tr=udp%3A%2F%2Fopen.demonii.com%3A1337&amp;tr=udp%3A%2F%2Ftracker.coppersurfer.tk%3A6969&amp;tr=udp%3A%2F%2Fexodus.desync.com%3A6969","seeders":1,"leechers":1,"uploader":"basicssom","files":2,"time":1455254704,"description":"----------------------------------------------------------------\r\nTharai Thappattai 2016 Tamil Movies HDRip XviD ESubs AAC New Source with Sample ~ ☻rDX☻\r\n\r\nSCREEN SHOTS &amp; POSTER:\r\n  \nhttp://mobileshosting.com/2016/2/TharaiThappattai/11.html  \nhttp://mobileshosting.com/2016/2/TharaiThappattai/1.html  \nhttp://mobileshosting.com/2016/2/TharaiThappattai/2.html  \nhttp://mobileshosting.com/2016/2/TharaiThappattai/3.html  \nhttp://mobileshosting.com/2016/2/TharaiThappattai/4.html  \nhttp://mobileshosting.com/2016/2/TharaiThappattai/5.html  \nhttp://mobileshosting.com/2016/2/TharaiThappattai/6.html  \nhttp://mobileshosting.com/2016/2/TharaiThappattai/7.html  \nhttp://mobileshosting.com/2016/2/TharaiThappattai/8.html  \nhttp://mobileshosting.com/2016/2/TharaiThappattai/9.html  \nhttp://mobileshosting.com/2016/2/TharaiThappattai/10.html\r\n\r\nFormat                                   : Matroska\r\nFormat version                           : Version 4 / Version 2\r\nFile size                                : 698 MiB\r\nDuration                                 : 2h 6mn\r\nOverall bit rate                         : 770 Kbps\r\nMovie name                               : Tharai Thappattai 2016 Tamil Movies HDRip XviD ESubs AAC New Source ☻rDX☻\r\n\r\nVideo\r\nID                                       : 1\r\nFormat                                   : AVC\r\nFormat/Info                              : Advanced Video Codec\r\nFormat profile                           :   \r\nFormat settings, CABAC                   : Yes\r\nFormat settings, ReFrames                : 4 frames\r\nCodec ID                                 : V_MPEG4/ISO/AVC\r\nDuration                                 : 2h 6mn\r\nBit rate                                 : 672 Kbps\r\nWidth                                    : 640 pixels\r\nHeight                                   : 272 pixels\r\nDisplay aspect ratio                     : 2.35:1\r\nFrame rate mode                          : Constant\r\nFrame rate                               : 24.000 fps\r\nColor space                              : YUV\r\nChroma subsampling                       : 4:2:0\r\nBit depth                                : 8 bits\r\nScan type                                : Progressive\r\nBits/(Pixel*Frame)                       : 0.161\r\nStream size                              : 597 MiB (86%)\r\nTitle                                    : ☻rDX☻\r\nWriting library                          : XviD\r\nLanguage                                 : Tamil\r\nDefault                                  : Yes\r\nForced                                   : Yes\r\n\r\nAudio\r\nID                                       : 2\r\nFormat                                   : MPEG Audio\r\nFormat version                           : Version 1\r\nFormat profile                           : Layer 3\r\nMode                                     : Joint stereo\r\nMode extension                           : MS Stereo\r\nCodec ID                                 : A_MPEG/L3\r\nCodec ID/Hint                            : MP3\r\nDuration                                 : 2h 6mn\r\nBit rate mode                            : Constant\r\nBit rate                                 : 96.0 Kbps\r\nChannel(s)                               : 2 channels\r\nSampling rate                            : 48.0 KHz\r\nCompression mode                         : Lossy\r\nStream size                              : 87.1 MiB (12%)\r\nTitle                                    : ☻rDX☻\r\nWriting library                          : LAME3.97\r\nLanguage                                 : Tamil\r\nDefault                                  : Yes\r\nForced                                   : Yes\r\n\r\nText\r\nID                                       : 3\r\nFormat                                   : UTF-8\r\nCodec ID                                 : S_TEXT/UTF8\r\nCodec ID/Info                            : UTF-8 Plain Text\r\nTitle                                    : ☻rDX☻\r\nLanguage                                 : English\r\nDefault                                  : No\r\nForced                                   : No\r\n\r\nIMDB                                      \nhttp://www.imdb.com/title/tt5340516/","torrent":{"xt":"urn:btih:6013400c1b0b7bff2230e26c8ba6d19f6d8ba38b","amp;dn":"Tharai+Thappattai+2016+Movies+HDRip+XviD+ESubs+AAC+%2BSample+%E2%98%BBrDX%E2%98%BB","amp;tr":["udp%3A%2F%2Ftracker.leechers-paradise.org%3A6969","udp%3A%2F%2Fzer0day.ch%3A1337","udp%3A%2F%2Fopen.demonii.com%3A1337","udp%3A%2F%2Ftracker.coppersurfer.tk%3A6969","udp%3A%2F%2Fexodus.desync.com%3A6969"],"infoHash":"6013400c1b0b7bff2230e26c8ba6d19f6d8ba38b","infoHashBuffer":{"type":"Buffer","data":[96,19,64,12,27,11,123,255,34,48,226,108,139,166,209,159,109,139,163,139]},"announce":[],"urlList":[]}}